<?xml version="1.0" standalone="no"?>
<!DOCTYPE svg PUBLIC "-//W3C//DTD SVG 20010904//EN"
 "http://www.w3.org/TR/2001/REC-SVG-20010904/DTD/svg10.dtd">
<svg version="1.0" xmlns="http://www.w3.org/2000/svg"
 width="192.000000pt" height="192.000000pt" viewBox="0 0 192.000000 192.000000"
 preserveAspectRatio="xMidYMid meet">
<metadata>
Created by potrace 1.11, written by Peter Selinger 2001-2013
</metadata>
<g transform="translate(0.000000,192.000000) scale(0.100000,-0.100000)"
fill="#000000" stroke="none">
<path d="M0 960 l0 -960 960 0 960 0 0 960 0 960 -960 0 -960 0 0 -960z m1120
589 c0 -38 2 -41 23 -35 68 19 97 18 141 -4 61 -29 130 -107 146 -165 25 -90
-8 -217 -79 -297 -36 -42 -136 -95 -193 -104 l-38 -7 0 -151 0 -152 69 -36 69
-35 30 29 c16 17 32 26 35 21 3 -5 -50 -71 -119 -146 l-125 -136 -42 28 c-112
75 -253 96 -352 52 -27 -12 -58 -29 -68 -39 -19 -16 -19 -16 -12 18 17 80 70
158 135 199 72 46 148 64 257 59 l93 -4 -2 386 -3 385 -42 3 c-79 6 -93 -57
-42 -185 97 -244 91 -381 -22 -490 -42 -40 -143 -94 -203 -108 l-29 -6 26 31
c34 40 51 102 44 166 -11 103 -61 152 -144 140 -39 -5 -43 -4 -43 15 0 27 52
79 79 79 31 0 26 14 -13 35 -39 21 -99 17 -139 -10 -14 -9 -34 -37 -43 -62
-16 -41 -16 -50 -3 -86 18 -51 67 -87 120 -87 38 0 58 -13 39 -25 -18 -11 -87
5 -122 28 -46 31 -78 98 -78 165 0 69 23 117 74 154 39 28 45 30 118 26 l76
-5 6 30 c16 77 81 134 254 221 l92 46 0 50 c0 38 4 50 15 50 11 0 15 -11 15
-41z m-113 -21 c-52 -124 -177 -173 -324 -128 -83 27 -106 22 -111 -23 -6 -51
77 -74 153 -43 27 12 35 12 35 2 0 -20 -66 -46 -117 -46 -39 0 -50 5 -84 39
-35 34 -39 44 -39 87 0 141 101 184 306 130 101 -27 132 -25 166 11 27 29 34
17 15 -29z"/>
<path d="M1120 1174 l0 -216 23 14 c58 37 92 183 67 287 -12 50 -61 131 -80
131 -6 0 -10 -80 -10 -216z"/>
</g>
</svg>
